<?xml version="1.0" standalone="no"?>
<!DOCTYPE svg PUBLIC "-//W3C//DTD SVG 20010904//EN"
 "http://www.w3.org/TR/2001/REC-SVG-20010904/DTD/svg10.dtd">
<svg version="1.0" xmlns="http://www.w3.org/2000/svg"
 width="1024.000000pt" height="1024.000000pt" viewBox="0 0 1024.000000 1024.000000"
 preserveAspectRatio="xMidYMid meet">

<g transform="translate(0.000000,1024.000000) scale(0.100000,-0.100000)"
fill="#000000" stroke="none">
<path d="M1185 8615 c-261 -57 -458 -253 -520 -519 -13 -52 -15 -474 -15
-2967 0 -2876 0 -2907 20 -2984 34 -133 83 -218 180 -315 64 -65 103 -95 160
-122 151 -75 -241 -68 4130 -66 l3935 3 67 26 c171 66 298 179 373 331 81 165
75 -108 75 3118 0 3229 6 2952 -76 3120 -39 79 -61 110 -133 181 -91 91 -168
140 -281 181 l-65 23 -3895 2 c-3201 1 -3906 -1 -3955 -12z m7870 -407 c60
-32 114 -87 146 -148 l24 -45 3 -2877 2 -2877 -21 -58 c-30 -78 -104 -152
-182 -182 l-58 -21 -3867 2 -3867 3 -48 24 c-62 30 -128 96 -158 158 l-24 48
0 2890 0 2890 24 45 c42 81 118 145 201 171 14 4 1769 7 3900 6 l3875 -2 50
-27z"/>
<path d="M6960 7810 c-203 -25 -388 -82 -575 -175 -174 -87 -295 -176 -440
-320 -274 -273 -426 -582 -481 -972 -22 -160 -15 -435 16 -578 87 -408 304
-749 640 -1005 200 -152 407 -246 660 -300 162 -35 423 -39 594 -10 298 50
527 148 759 321 113 86 309 285 390 399 123 174 226 409 267 611 88 430 4 894
-226 1246 -256 395 -670 674 -1130 763 -125 24 -359 34 -474 20z m-10 -1017
c0 -629 2 -670 19 -708 23 -50 62 -87 126 -118 79 -39 1032 -486 1113 -522
l73 -32 -47 -64 c-79 -106 -144 -177 -240 -257 -424 -356 -1010 -421 -1493
-166 -94 49 -227 142 -217 151 3 4 16 -2 28 -13 l23 -19 -19 23 c-12 13 -26
20 -36 17 -12 -4 -44 22 -107 89 -192 200 -314 444 -358 714 -23 136 -16 386
13 517 90 400 364 748 731 931 110 54 295 114 384 123 4 1 7 -299 7 -666z
m468 642 c471 -120 850 -467 990 -905 59 -184 76 -390 47 -568 -16 -98 -44
-212 -55 -225 -8 -9 -50 10 -605 278 -225 109 -429 206 -452 216 l-43 18 0
606 c0 423 3 605 11 605 6 0 54 -11 107 -25z"/>
<path d="M6875 7430 c-27 -7 -28 -8 -5 -8 14 0 34 3 45 8 25 11 2 11 -40 0z"/>
<path d="M6818 7413 c7 -3 16 -2 19 1 4 3 -2 6 -13 5 -11 0 -14 -3 -6 -6z"/>
<path d="M6702 7383 c-24 -8 -41 -17 -39 -19 2 -2 28 5 58 15 30 11 47 20 39
19 -8 0 -34 -6 -58 -15z"/>
<path d="M6610 7345 c-14 -8 -20 -14 -15 -14 6 0 21 6 35 14 14 8 21 14 15 14
-5 0 -21 -6 -35 -14z"/>
<path d="M6508 7294 c-38 -20 -36 -28 2 -9 17 9 30 18 30 20 0 7 -1 6 -32 -11z"/>
<path d="M6415 7234 l-30 -26 33 22 c17 12 32 23 32 26 0 7 -4 5 -35 -22z"/>
<path d="M6327 7168 c-31 -31 -31 -32 -2 -8 16 14 34 28 40 32 5 5 6 8 2 8 -4
0 -22 -15 -40 -32z"/>
<path d="M6254 7108 l-19 -23 23 19 c21 18 27 26 19 26 -2 0 -12 -10 -23 -22z"/>
<path d="M6169 7023 c-63 -66 -94 -103 -87 -103 2 0 37 36 77 80 84 93 90 106
10 23z"/>
<path d="M6032 6853 c-24 -35 -44 -73 -38 -73 2 0 18 23 35 50 33 54 35 68 3
23z"/>
<path d="M5949 6709 c-16 -34 -29 -63 -27 -65 2 -2 18 26 36 61 17 36 30 65
27 65 -3 0 -19 -27 -36 -61z"/>
<path d="M5891 6573 c-1 -6 -4 -20 -7 -30 -5 -17 -5 -17 6 0 6 10 9 23 6 30
-3 9 -5 9 -5 0z"/>
<path d="M5866 6494 c-4 -14 -5 -28 -3 -31 3 -2 8 8 11 23 4 14 5 28 3 31 -3
2 -8 -8 -11 -23z"/>
<path d="M5851 6434 c0 -11 3 -14 6 -6 3 7 2 16 -1 19 -3 4 -6 -2 -5 -13z"/>
<path d="M5842 6390 c0 -14 2 -19 5 -12 2 6 2 18 0 25 -3 6 -5 1 -5 -13z"/>
<path d="M5832 6335 c0 -16 2 -22 5 -12 2 9 2 23 0 30 -3 6 -5 -1 -5 -18z"/>
<path d="M5822 6270 c0 -19 2 -27 5 -17 2 9 2 25 0 35 -3 9 -5 1 -5 -18z"/>
<path d="M5814 6115 c0 -60 1 -84 3 -52 2 32 2 81 0 110 -2 29 -3 3 -3 -58z"/>
<path d="M6921 6184 c0 -11 3 -14 6 -6 3 7 2 16 -1 19 -3 4 -6 -2 -5 -13z"/>
<path d="M6931 6124 c0 -11 3 -14 6 -6 3 7 2 16 -1 19 -3 4 -6 -2 -5 -13z"/>
<path d="M6940 6094 c0 -6 7 -19 16 -30 14 -18 14 -18 3 6 -14 31 -19 36 -19
24z"/>
<path d="M6970 6036 c0 -2 8 -10 18 -17 15 -13 16 -12 3 4 -13 16 -21 21 -21
13z"/>
<path d="M5823 5955 c0 -27 2 -38 4 -22 2 15 2 37 0 50 -2 12 -4 0 -4 -28z"/>
<path d="M7001 5997 c2 -1 13 -9 24 -17 19 -14 19 -14 6 3 -7 9 -18 17 -24 17
-6 0 -8 -1 -6 -3z"/>
<path d="M7117 5929 c7 -7 15 -10 18 -7 3 3 -2 9 -12 12 -14 6 -15 5 -6 -5z"/>
<path d="M7160 5910 c8 -5 20 -10 25 -10 6 0 3 5 -5 10 -8 5 -19 10 -25 10 -5
0 -3 -5 5 -10z"/>
<path d="M5832 5880 c0 -28 25 -133 26 -110 1 8 -5 42 -12 75 -8 33 -14 49
-14 35z"/>
<path d="M7320 5835 c14 -8 30 -14 35 -14 6 0 -1 6 -15 14 -14 8 -29 14 -35
14 -5 0 1 -6 15 -14z"/>
<path d="M7391 5806 c2 -2 15 -9 29 -15 24 -11 24 -11 6 3 -16 13 -49 24 -35
12z"/>
<path d="M7480 5760 c19 -11 40 -19 45 -19 6 0 -6 8 -25 19 -19 11 -39 19 -45
19 -5 0 6 -8 25 -19z"/>
<path d="M5861 5740 c0 -8 6 -28 14 -45 17 -39 18 -21 0 25 -7 19 -14 28 -14
20z"/>
<path d="M7581 5716 c2 -2 15 -9 29 -15 24 -11 24 -11 6 3 -16 13 -49 24 -35
12z"/>
<path d="M7670 5670 c19 -11 40 -19 45 -19 6 0 -6 8 -25 19 -19 11 -39 19 -45
19 -5 0 6 -8 25 -19z"/>
<path d="M5901 5625 c0 -5 6 -21 14 -35 8 -14 14 -20 14 -15 0 6 -6 21 -14 35
-8 14 -14 21 -14 15z"/>
<path d="M7854 5586 c11 -9 24 -16 30 -16 12 0 7 5 -24 19 -24 11 -24 11 -6
-3z"/>
<path d="M7900 5566 c0 -2 7 -7 16 -10 8 -3 12 -2 9 4 -6 10 -25 14 -25 6z"/>
<path d="M5931 5555 c0 -5 6 -21 14 -35 8 -14 14 -20 14 -15 0 6 -6 21 -14 35
-8 14 -14 21 -14 15z"/>
<path d="M7950 5540 c8 -5 20 -10 25 -10 6 0 3 5 -5 10 -8 5 -19 10 -25 10 -5
0 -3 -5 5 -10z"/>
<path d="M8004 5516 c11 -9 24 -16 30 -16 12 0 7 5 -24 19 -24 11 -24 11 -6
-3z"/>
<path d="M5975 5460 c9 -16 18 -30 21 -30 2 0 -2 14 -11 30 -9 17 -18 30 -21
30 -2 0 2 -13 11 -30z"/>
<path d="M8100 5470 c8 -5 20 -10 25 -10 6 0 3 5 -5 10 -8 5 -19 10 -25 10 -5
0 -3 -5 5 -10z"/>
<path d="M8147 5449 c7 -7 15 -10 18 -7 3 3 -2 9 -12 12 -14 6 -15 5 -6 -5z"/>
<path d="M8218 5418 c12 -6 22 -14 22 -18 0 -4 -23 -37 -50 -74 -28 -36 -48
-66 -46 -66 3 0 30 33 60 72 54 72 55 73 33 85 -12 7 -26 12 -32 12 -5 0 0 -5
13 -11z"/>
<path d="M6017 5389 c10 -17 24 -36 32 -42 8 -7 2 7 -14 31 -32 49 -45 57 -18
11z"/>
<path d="M6080 5300 c12 -16 24 -30 26 -30 3 0 -4 14 -16 30 -12 17 -24 30
-26 30 -3 0 4 -13 16 -30z"/>
<path d="M6120 5247 c0 -1 35 -36 78 -77 l77 -75 -75 78 c-69 71 -80 82 -80
74z"/>
<path d="M8067 5184 c-21 -20 -37 -38 -35 -40 3 -2 22 14 43 36 48 50 43 52
-8 4z"/>
<path d="M7994 5119 c-10 -12 -48 -42 -84 -67 -67 -47 -97 -71 -70 -57 58 31
198 145 178 145 -3 0 -13 -10 -24 -21z"/>
<path d="M6392 5008 c27 -23 139 -88 127 -74 -4 4 -40 27 -80 52 -41 24 -62
34 -47 22z"/>
<path d="M6530 4926 c0 -2 7 -7 16 -10 8 -3 12 -2 9 4 -6 10 -25 14 -25 6z"/>
<path d="M6580 4900 c8 -5 20 -10 25 -10 6 0 3 5 -5 10 -8 5 -19 10 -25 10 -5
0 -3 -5 5 -10z"/>
<path d="M6630 4880 c8 -5 20 -10 25 -10 6 0 3 5 -5 10 -8 5 -19 10 -25 10 -5
0 -3 -5 5 -10z"/>
<path d="M7590 4880 c-8 -5 -10 -10 -5 -10 6 0 17 5 25 10 8 5 11 10 5 10 -5
0 -17 -5 -25 -10z"/>
<path d="M6730 4847 c0 -7 140 -40 146 -34 3 3 -18 10 -48 16 -29 7 -63 14
-75 17 -13 4 -23 4 -23 1z"/>
<path d="M7465 4840 c-13 -5 -14 -9 -5 -9 8 0 24 4 35 9 13 5 14 9 5 9 -8 0
-24 -4 -35 -9z"/>
<path d="M7418 4823 c7 -3 16 -2 19 1 4 3 -2 6 -13 5 -11 0 -14 -3 -6 -6z"/>
<path d="M7325 4810 c-27 -7 -27 -8 -5 -8 14 0 39 4 55 8 27 7 27 8 5 8 -14 0
-38 -4 -55 -8z"/>
<path d="M6925 4799 c39 -8 162 -12 154 -5 -2 2 -47 6 -99 8 -63 4 -82 3 -55
-3z"/>
<path d="M7153 4793 c26 -2 67 -2 90 0 23 2 2 3 -48 3 -49 0 -68 -1 -42 -3z"/>
<path d="M4084 7351 c-23 -10 -51 -32 -62 -49 -21 -28 -45 -115 -41 -144 1 -7
1 -664 0 -1460 l-1 -1448 -105 0 -105 0 0 1110 c0 977 -2 1115 -15 1147 -21
50 -42 72 -90 94 -36 17 -72 19 -395 19 -406 0 -414 -2 -467 -81 l-28 -43 -3
-1123 -2 -1123 -105 0 -105 0 0 753 c0 845 5 787 -74 852 l-38 30 -379 3
c-357 3 -381 2 -416 -17 -47 -23 -68 -46 -88 -94 -13 -32 -15 -144 -15 -887 0
-815 1 -852 19 -888 23 -46 46 -67 94 -87 32 -13 216 -15 1609 -15 1504 0
1575 1 1613 19 49 22 91 69 105 119 8 26 10 517 8 1623 l-3 1585 -28 43 c-53
79 -59 81 -477 81 -335 0 -368 -2 -406 -19z m566 -343 c0 -5 0 -627 0 -1383
l0 -1375 -155 0 -155 0 0 1378 c0 759 3 1382 7 1386 9 9 303 3 303 -6z m-1220
-1748 l-1 -1010 -152 0 -152 0 0 1010 0 1010 153 0 152 0 0 -1010z m-1220
-370 l0 -640 -150 0 -150 0 0 640 0 640 150 0 150 0 0 -640z"/>
<path d="M5558 3990 c-56 -30 -82 -73 -86 -145 -4 -77 24 -128 87 -162 l44
-23 1521 0 c1454 0 1523 1 1561 19 45 20 92 70 101 107 11 43 -2 120 -25 153
-13 17 -40 40 -61 51 -39 20 -64 20 -1572 20 -1497 -1 -1534 -1 -1570 -20z"/>
<path d="M1630 3488 c-55 -38 -74 -71 -77 -141 -5 -81 22 -132 87 -164 l44
-23 1596 0 1595 0 40 23 c60 34 87 87 82 164 -3 70 -22 103 -77 141 l-33 22
-1612 0 -1612 0 -33 -22z"/>
<path d="M5565 3306 c-124 -54 -127 -244 -5 -306 38 -20 63 -20 1130 -20 1198
0 1128 -4 1186 62 72 82 42 214 -60 262 -31 14 -140 16 -1128 16 -886 -1
-1099 -3 -1123 -14z"/>
<path d="M5570 2639 c-62 -25 -100 -85 -100 -156 1 -56 23 -102 65 -135 l30
-23 1110 -3 c610 -1 1120 0 1132 3 13 3 38 19 58 36 65 57 70 160 12 226 -59
67 12 63 -1189 62 -701 0 -1102 -4 -1118 -10z"/>
</g>
</svg>
